<svg width="63" height="54" viewBox="0 0 63 54" fill="none" xmlns="http://www.w3.org/2000/svg">
<path d="M26.4067 0.0386732V0H49.3736V0.0402508L26.4067 0.0386732Z" fill="#E4B935"/>
<path d="M26.4069 0.0390625H49.3737C49.2001 0.874078 49.0296 1.70988 48.852 2.54411C48.1722 5.73632 47.4903 8.92747 46.8063 12.1176C46.5301 13.4143 46.2539 14.7118 45.9745 16.0069C45.939 16.1648 45.9548 16.2208 46.1323 16.2232C46.7637 16.2327 47.3951 16.2232 48.0265 16.1987C48.3353 16.1804 48.6453 16.2005 48.9491 16.2587C49.5016 16.3755 49.6555 16.7741 49.3248 17.2374C49.1399 17.4784 48.8995 17.6712 48.624 17.7993C48.0013 18.1205 47.3272 18.2579 46.6414 18.347C46.3034 18.3989 45.962 18.4253 45.6201 18.426C45.4875 18.426 45.4536 18.4875 45.4315 18.5941C45.221 19.5938 45.0087 20.5956 44.7946 21.5995L42.8459 30.7878C42.8065 30.9741 42.767 31.1596 42.7299 31.3474C42.711 31.4531 42.6731 31.5171 42.5523 31.495C42.5195 31.4918 42.4865 31.4918 42.4537 31.495H19.9817C19.7102 31.495 19.711 31.495 19.7694 31.2172C20.8943 25.9198 22.0187 20.6224 23.1426 15.325C23.3936 14.1433 23.6453 12.9621 23.8979 11.7814C23.9198 11.713 23.9153 11.639 23.8853 11.5738C23.5498 10.91 23.4433 10.1895 23.373 9.46179C23.1939 7.61181 23.624 5.84471 24.1283 4.09102C24.2744 3.5859 24.8237 3.27494 25.4227 3.34282C25.6429 3.36728 25.706 3.3073 25.7471 3.09894C25.9467 2.10134 26.1654 1.10769 26.3785 0.112461C26.3857 0.087189 26.3952 0.0626233 26.4069 0.0390625ZM34.2203 16.3763C34.2791 16.37 34.3384 16.37 34.3971 16.3763C35.1185 16.5405 35.4879 16.1143 35.7799 15.5579C35.813 15.4939 35.847 15.4292 35.8754 15.3637C36.0782 14.902 36.0774 14.9012 35.7041 14.5745C35.6795 14.5514 35.6531 14.5302 35.6252 14.5113C35.4618 14.4119 35.4626 14.3053 35.5628 14.1428C35.8733 13.6377 36.3271 13.2364 36.8664 12.99C37.4057 12.7436 38.0061 12.6633 38.5911 12.7592C38.7913 12.7863 38.9801 12.8683 39.1365 12.996C39.6495 13.4072 40.1799 13.7947 40.7213 14.1688C41.2193 14.5224 41.7392 14.8443 42.2777 15.1325C42.4774 15.2367 42.4884 15.2319 42.4703 15.0172C42.4355 14.6116 42.3953 14.2062 42.3495 13.801C42.2477 12.8902 41.9722 12.0513 41.3898 11.3197C40.9723 10.7956 40.5753 10.255 40.1491 9.73723C40.1076 9.69266 40.0769 9.63919 40.0592 9.58092C40.0416 9.52265 40.0375 9.46111 40.0473 9.40102C40.142 8.6544 40.1436 8.64966 39.6779 8.05931C38.6519 6.75864 37.4333 5.64424 36.1879 4.55982C36.1146 4.50423 36.0291 4.46689 35.9385 4.45091C35.0775 4.23907 34.1966 4.11818 33.3103 4.09023C32.7958 4.06655 32.3191 4.12338 31.8968 4.43907C31.5519 4.69715 31.1865 4.73977 30.7532 4.66795C29.3547 4.43512 27.949 4.24413 26.545 4.04524C26.1362 3.98763 25.7313 3.88739 25.3138 3.90791C24.9547 3.92449 24.755 4.04919 24.6642 4.34515C24.2167 5.80682 23.875 7.2898 23.9247 8.83277C23.9506 10.2567 24.4221 11.6368 25.2727 12.779C26.2198 14.056 27.5015 14.8752 28.9672 15.43C30.6569 16.0677 32.4232 16.2958 34.2164 16.3732L34.2203 16.3763ZM34.0625 26.0626C33.9796 26.1171 33.9252 26.1534 33.8699 26.1881C33.1857 26.6175 32.5022 27.0484 31.814 27.4714C31.675 27.5567 31.6687 27.6009 31.7982 27.7082C32.9031 28.6198 34.0033 29.5385 35.1059 30.454C35.1335 30.4776 35.1587 30.5179 35.2171 30.4903C35.229 30.2867 35.2527 30.0775 35.2495 29.8684C35.2491 29.6322 35.2989 29.3987 35.3955 29.1833C35.7025 28.4509 35.9961 27.7129 36.2976 26.9782C36.3362 26.8881 36.3538 26.7904 36.3489 26.6925C36.3221 26.0421 36.2968 25.3918 36.2771 24.7415C36.2738 24.6238 36.238 24.5094 36.1737 24.4108C35.476 23.2822 34.7831 22.1512 34.083 21.0234C34.052 20.9785 34.0318 20.9271 34.0241 20.8731C34.0165 20.8191 34.0215 20.7641 34.0388 20.7124C34.1556 20.3091 34.2614 19.9026 34.3774 19.4985C34.4212 19.3404 34.4346 19.1755 34.4169 19.0124C34.3758 18.5672 34.3379 18.1221 34.3072 17.6762C34.2985 17.5278 34.2566 17.4789 34.0996 17.4781C33.0543 17.4788 32.0116 17.3755 30.9868 17.1695C28.3184 16.617 26.1677 15.2816 24.6335 13.0031C24.6027 12.9581 24.5877 12.8934 24.5056 12.8752C24.4969 12.9123 24.4874 12.9486 24.4796 12.985C23.7987 16.2145 23.1181 19.4446 22.4378 22.6752C22.3526 23.0785 22.3526 23.0833 22.7582 23.1259C23.0202 23.1535 23.2696 23.2372 23.5475 23.1361C24.8931 22.6523 26.2474 22.193 27.597 21.7155C27.664 21.6847 27.7382 21.6733 27.8113 21.6825C27.8844 21.6917 27.9534 21.7212 28.0106 21.7676C29.8022 23.0462 31.5974 24.32 33.3964 25.5891L34.0625 26.0626ZM27.7533 22.4661C27.7533 23.4321 27.7533 24.3847 27.7533 25.3381C27.755 25.5008 27.723 25.662 27.6594 25.8117C27.1385 27.0516 26.6239 28.2946 26.1014 29.5345C26.0718 29.5919 26.0575 29.6561 26.06 29.7207C26.0624 29.7853 26.0816 29.8481 26.1156 29.9031C26.2261 30.0972 26.324 30.2977 26.4148 30.5021C26.4315 30.5538 26.4655 30.5982 26.511 30.6278C26.5566 30.6574 26.6109 30.6704 26.665 30.6647C27.9214 30.6576 29.1771 30.6647 30.4328 30.6592C30.4872 30.6592 30.5496 30.6844 30.608 30.6205C30.4928 30.3837 30.3815 30.1383 30.2568 29.9015C30.1929 29.7876 30.1737 29.6539 30.2031 29.5266C30.5109 28.0223 30.8108 26.5157 31.1234 25.0122C31.1549 24.863 31.1234 24.7888 31.005 24.7059C29.9748 23.9888 28.9464 23.269 27.9198 22.5466C27.8745 22.4984 27.8129 22.4686 27.747 22.4629L27.7533 22.4661ZM45.1284 17.9248C45.2728 17.9248 45.4173 17.9295 45.5617 17.9248C46.4243 17.8901 47.2759 17.7835 48.0967 17.4994C48.3493 17.424 48.5821 17.2938 48.7786 17.1182C48.8718 17.029 48.9562 16.924 48.9018 16.7891C48.8536 16.6691 48.7234 16.6604 48.6145 16.6596C48.3517 16.6596 48.0873 16.6525 47.8252 16.6762C46.7167 16.7821 45.5983 16.6991 44.5175 16.4308C42.595 15.9533 40.8815 15.0464 39.2967 13.8815C39.0911 13.7209 38.8455 13.6196 38.5864 13.5887C37.8469 13.5098 37.2045 13.6811 36.7262 14.2935C36.6378 14.4064 36.6354 14.4782 36.7514 14.5808C37.3615 15.1215 38.0189 15.6062 38.7158 16.029C40.6811 17.2271 42.8002 17.9232 45.1221 17.9216L45.1284 17.9248ZM39.2454 17.0708C39.2659 17.2082 39.2849 17.3076 39.2952 17.4142C39.3275 17.7535 39.4388 18.0834 39.4049 18.4291C39.3007 19.4891 39.075 20.5309 38.936 21.5861C38.8287 22.4077 38.719 23.2301 38.7632 24.0603C38.7987 24.7312 39.0166 25.3358 39.5856 25.7343C40.1223 26.11 40.7118 26.2244 41.3314 25.9048C41.3796 25.8845 41.42 25.8493 41.447 25.8045C41.4739 25.7597 41.486 25.7075 41.4813 25.6554C41.4789 25.4321 41.4569 25.2095 41.4158 24.9901C41.3882 24.8512 41.3432 24.8149 41.1933 24.8417C40.6361 24.9419 40.2533 24.541 40.3622 23.9877C40.4577 23.5016 40.6511 23.0485 40.8357 22.5932C41.2848 21.5001 41.8183 20.4441 42.2848 19.3573C42.4039 19.0511 42.477 18.7291 42.5018 18.4015C42.5145 18.2942 42.5018 18.2389 42.3677 18.2216C42.1468 18.1893 41.9281 18.144 41.7126 18.0858C40.8486 17.8591 40.0188 17.5177 39.2454 17.0708Z" fill="#DFAC0F"/>
<path d="M34.5777 40.6155C34.809 40.6527 35.0357 40.7141 35.2541 40.7987C35.9708 41.0978 36.3527 41.6526 36.3875 42.4095C36.4522 43.8072 35.779 44.834 34.6677 45.6035C33.9535 46.0954 33.1056 46.3566 32.2384 46.3517C31.0885 46.3604 29.9378 46.3517 28.7871 46.3517C28.4793 46.3517 28.4098 46.2649 28.4714 45.9666C29.1675 42.5934 29.8639 39.2202 30.5605 35.847C30.6315 35.5005 30.7184 35.4326 31.0656 35.4326C31.8083 35.4326 32.551 35.4326 33.2944 35.4326C33.9819 35.4326 34.6598 35.5115 35.2959 35.7917C35.9857 36.0956 36.5035 36.5723 36.5777 37.3584C36.6834 38.4799 36.3054 39.423 35.4017 40.1302C35.1444 40.3198 34.8683 40.4824 34.5777 40.6155ZM31.5336 45.0771V45.0653C31.7767 45.0653 32.0198 45.0755 32.2621 45.0653C33.4294 45.0092 34.195 44.336 34.4057 43.1885C34.5762 42.2556 34.1231 41.61 33.1926 41.4695C32.6117 41.3835 32.0253 41.449 31.4421 41.4285C31.3458 41.4285 31.3403 41.4821 31.3269 41.5484C31.2621 41.8697 31.1951 42.1909 31.128 42.5113C30.9638 43.3005 30.8028 44.0898 30.6331 44.879C30.5984 45.0369 30.6284 45.0961 30.8052 45.0842C31.0467 45.0653 31.2906 45.0771 31.5336 45.0771ZM32.1887 40.1515C32.4379 40.1665 32.6879 40.1522 32.9338 40.1089C33.8406 39.9013 34.5328 39.0939 34.6227 38.1358C34.6946 37.3741 34.3591 36.9211 33.6133 36.768C33.2826 36.7001 32.9472 36.7191 32.6141 36.6978C32.3852 36.6828 32.3079 36.7522 32.2645 36.9803C32.0743 37.9842 31.8636 38.9842 31.6489 39.9842C31.6149 40.142 31.6623 40.1602 31.7949 40.1515C31.9275 40.1428 32.0569 40.1515 32.1887 40.1515Z" fill="white"/>
<path d="M43.7652 39.4447C43.8686 39.1882 43.9641 38.9712 44.043 38.7525C44.0653 38.6661 44.1179 38.5906 44.1912 38.5397C44.2645 38.4889 44.3537 38.4661 44.4424 38.4755C44.7778 38.4826 45.1132 38.4755 45.4487 38.4755C45.6973 38.4755 45.7699 38.5679 45.7225 38.8054C45.3542 40.6254 44.9859 42.4456 44.6176 44.2662C44.5802 44.413 44.5674 44.565 44.5797 44.716C44.6137 44.9686 44.6981 45.0578 44.9507 45.0909C45.1085 45.1114 45.1748 45.1983 45.148 45.3466C45.103 45.5984 45.0509 45.8494 44.9901 46.098C44.9771 46.1739 44.9368 46.2425 44.8768 46.2907C44.8167 46.339 44.7411 46.3636 44.6642 46.36C44.3483 46.3747 44.032 46.3439 43.725 46.2685C43.2396 46.1406 42.9744 45.8273 42.9128 45.3214C42.9057 45.2638 42.9034 45.2054 42.8979 45.1375C42.8126 45.158 42.7826 45.229 42.74 45.278C41.7613 46.3466 40.5491 46.7254 39.1363 46.48C38.1845 46.3142 37.5926 45.7199 37.3795 44.7705C37.1972 43.9615 37.295 43.1628 37.4584 42.3665C37.651 41.4194 37.9754 40.5267 38.5634 39.7391C39.5791 38.3666 41.2144 38.0754 42.4582 38.3871C43.0336 38.5363 43.4582 38.8851 43.7652 39.4447ZM39.1087 43.821C39.1089 43.9991 39.1242 44.1768 39.1545 44.3522C39.2405 44.8762 39.5294 45.1667 40.0534 45.2543C41.0794 45.4263 42.0613 44.9804 42.5719 44.0602C43.0783 43.1334 43.3253 42.0872 43.2869 41.0319C43.2688 40.2852 42.9144 39.822 42.2862 39.6381C41.9175 39.5369 41.5305 39.5221 41.1552 39.5947C40.4907 39.7067 40.1032 40.1519 39.8317 40.7185C39.3613 41.6988 39.194 42.7508 39.1087 43.821Z" fill="white"/>
<path d="M58.9858 35.5C58.7674 36.5628 58.5485 37.6236 58.3291 38.6822C58.1113 39.7422 57.8942 40.8021 57.6748 41.8692C57.7774 41.8628 57.8106 41.7902 57.8587 41.7429C58.8445 40.7666 59.8318 39.7919 60.8105 38.8085C60.9101 38.6998 61.0325 38.6143 61.1689 38.5583C61.3053 38.5022 61.4524 38.4769 61.5997 38.4841C61.9604 38.4975 62.3227 38.4841 62.6841 38.4912C62.7631 38.4912 62.8625 38.4699 62.8972 38.5488C62.932 38.6278 62.8357 38.683 62.7812 38.7335C61.571 39.8727 60.3572 41.0097 59.1397 42.1446C59.0118 42.2638 59.0118 42.338 59.1026 42.4785C59.8571 43.6473 60.6021 44.8225 61.3527 45.9953C61.3882 46.0506 61.4237 46.1066 61.4545 46.1634C61.5192 46.2818 61.4837 46.3647 61.3495 46.3655C60.7773 46.3655 60.2051 46.371 59.6337 46.3584C59.4625 46.3584 59.3638 46.2187 59.2801 46.0758C58.7124 45.1003 58.1426 44.1269 57.5706 43.1556C57.5359 43.0964 57.5193 43.0207 57.4317 42.9796C57.2692 43.7689 57.1089 44.5478 56.9471 45.3284C56.8966 45.5731 56.8485 45.8177 56.7932 46.0608C56.738 46.3039 56.6457 46.3694 56.4097 46.371C56.0419 46.371 55.6733 46.371 55.3047 46.371C54.9764 46.371 54.9149 46.2984 54.9804 45.9835C55.1824 45.0072 55.3876 44.0309 55.5897 43.0538C56.0327 40.9223 56.4723 38.794 56.9085 36.6689C56.9153 36.6147 56.9361 36.5633 56.9687 36.5196C57.0014 36.4759 57.0448 36.4414 57.0947 36.4195C57.659 36.1401 58.2186 35.8512 58.7806 35.5679C58.8403 35.5247 58.912 35.501 58.9858 35.5Z" fill="white"/>
<path d="M49.263 39.7488C49.5367 39.3825 49.8525 39.0495 50.2038 38.7568C51.0333 38.078 52.7144 38.1838 53.4941 38.8965C54.1255 39.475 54.2968 40.2161 54.1603 41.0195C53.9827 42.0605 53.7467 43.0913 53.5407 44.1275C53.4957 44.3525 53.4531 44.5806 53.5155 44.811C53.5589 44.9728 53.6283 45.103 53.8311 45.1015C54.0016 45.1015 54.0679 45.2056 54.0395 45.3627C53.9945 45.6137 53.944 45.8654 53.8856 46.114C53.8721 46.1869 53.8328 46.2525 53.7747 46.2986C53.7167 46.3448 53.644 46.3684 53.5699 46.365C53.2543 46.3823 52.9379 46.3501 52.6323 46.2695C51.922 46.0699 51.5716 45.5592 51.6063 44.77C51.6292 44.2341 51.7862 43.7227 51.8801 43.2002C52.008 42.4899 52.2219 41.7953 52.2613 41.0692C52.2704 40.9252 52.2704 40.7808 52.2613 40.6367C52.2061 39.8396 51.7089 39.4592 50.9267 39.5918C50.6824 39.6313 50.4492 39.722 50.2425 39.858C50.0357 39.9941 49.8601 40.1723 49.7271 40.381C49.3751 40.8972 49.2259 41.486 49.1012 42.0874C48.8292 43.3975 48.5548 44.7076 48.2781 46.0178C48.2197 46.294 48.1257 46.3658 47.8432 46.3666C47.462 46.3666 47.08 46.3666 46.6988 46.3666C46.4565 46.3666 46.3831 46.2672 46.4289 46.0288C46.7972 44.2288 47.1671 42.4288 47.5385 40.6288C47.5796 40.4299 47.6285 40.2342 47.5685 40.0259C47.5212 39.868 47.4359 39.7654 47.2528 39.7504C47.0326 39.7323 46.9853 39.6557 47.0295 39.4347C47.0737 39.2137 47.1179 38.9967 47.1637 38.7789C47.1736 38.6959 47.2142 38.6196 47.2774 38.5649C47.3405 38.5101 47.4218 38.4809 47.5054 38.4829C47.8277 38.4623 48.1512 38.4937 48.4635 38.576C48.9836 38.7268 49.2007 38.9927 49.2528 39.531C49.2528 39.5878 49.2528 39.6447 49.263 39.7488Z" fill="white"/>
<path d="M3.16839 40.1314H4.36014C4.95207 40.1314 5.544 40.1314 6.13593 40.1314C6.42085 40.1314 6.48951 40.2151 6.43347 40.4944C6.38928 40.7131 6.34192 40.9309 6.29299 41.1487C6.23064 41.4234 6.13514 41.4991 5.83602 41.4991C4.92839 41.4991 4.02077 41.4991 3.11393 41.4928C2.94109 41.4928 2.86927 41.526 2.83218 41.713C2.55752 43.1037 2.2655 44.4904 1.98059 45.8794C1.90166 46.274 1.83852 46.3277 1.42812 46.3277C1.05323 46.3277 0.678343 46.3277 0.304243 46.3277C0.032745 46.3277 -0.0374977 46.2401 0.0177491 45.9733C0.349229 44.3665 0.6815 42.7601 1.01456 41.1542C1.37761 39.3995 1.73961 37.645 2.10055 35.8908C2.18895 35.4615 2.24814 35.4094 2.69169 35.4102L7.82175 35.4196C8.18795 35.4196 8.2432 35.4867 8.16822 35.8364C8.12402 36.0416 8.08219 36.2475 8.03326 36.452C7.97249 36.7069 7.88252 36.7779 7.62049 36.7779C6.43663 36.7779 5.25277 36.7779 4.06891 36.7779C3.91107 36.7779 3.84477 36.8071 3.81162 36.9752C3.60642 38.021 3.38701 39.0675 3.16839 40.1314Z" fill="white"/>
<path d="M18.6935 46.5256C18.0688 46.5198 17.4492 46.4132 16.8585 46.2099C16.6503 46.1451 16.4608 46.0312 16.306 45.8776C16.1482 45.7127 16.1482 45.5619 16.2863 45.3851C16.3763 45.2723 16.4765 45.1681 16.5728 45.0592C16.8096 44.7885 16.849 44.779 17.2042 44.9013C17.6967 45.0671 18.1923 45.217 18.7156 45.2431C19.1789 45.2675 19.6343 45.2494 20.0715 45.071C20.2436 45.0035 20.3962 44.8942 20.5156 44.753C20.6349 44.6118 20.7172 44.443 20.755 44.2621C20.8284 43.9771 20.7455 43.7806 20.4953 43.6228C20.229 43.4665 19.9443 43.344 19.6477 43.2581C19.3115 43.1492 18.976 43.0316 18.6343 42.9424C17.411 42.6165 17.1166 41.6939 17.3557 40.6434C17.6406 39.3924 18.6303 38.5124 19.946 38.3246C20.8828 38.1928 21.8078 38.2457 22.6902 38.6348C22.8675 38.7048 23.0312 38.8053 23.174 38.9315C23.3208 39.072 23.3318 39.1888 23.2056 39.3443C23.0477 39.5321 22.8836 39.7089 22.7265 39.8968C22.6476 39.9891 22.5615 39.9828 22.4605 39.9536C22.0762 39.8439 21.7092 39.6758 21.3138 39.604C20.8631 39.525 20.4117 39.4974 19.9665 39.6253C19.7746 39.676 19.5989 39.7752 19.4564 39.9134C19.3139 40.0516 19.2093 40.2242 19.1528 40.4145C19.0108 40.8368 19.1662 41.1382 19.5908 41.2716C20.1165 41.4366 20.6445 41.5928 21.1693 41.7531C21.4346 41.8268 21.6899 41.9328 21.9294 42.0688C22.3729 42.3332 22.5923 42.7301 22.6184 43.2376C22.6886 44.5998 21.9554 45.6803 20.6042 46.2107C20.0241 46.438 19.4196 46.528 18.6935 46.5256Z" fill="white"/>
<path d="M25.2899 39.6588C25.0491 39.6588 24.8061 39.6588 24.5638 39.6588C24.2828 39.6588 24.2204 39.5854 24.2741 39.3162C24.3128 39.1229 24.353 38.9303 24.3996 38.7393C24.4127 38.6602 24.4547 38.5888 24.5173 38.5388C24.58 38.4888 24.6589 38.4638 24.739 38.4686C24.956 38.4686 25.1738 38.456 25.3901 38.4686C25.5353 38.4788 25.5795 38.4236 25.6024 38.2894C25.6624 37.9343 25.7397 37.5791 25.8076 37.2263C25.8202 37.1616 25.8257 37.1024 25.8976 37.0685C26.5471 36.7417 27.1959 36.4118 27.8636 36.0732C27.8809 36.2855 27.8123 36.4631 27.7783 36.6431C27.6749 37.1955 27.5621 37.7377 27.4453 38.2839C27.4145 38.4268 27.4358 38.4812 27.5992 38.4725C27.8675 38.4591 28.1382 38.4662 28.4073 38.4725C28.6252 38.4765 28.6931 38.5554 28.6544 38.7709C28.6157 38.9863 28.5691 39.1821 28.5194 39.3857C28.4697 39.5893 28.3434 39.6674 28.1453 39.6659C27.8628 39.6659 27.5794 39.6659 27.2969 39.6659C27.1959 39.6659 27.1446 39.6887 27.1225 39.7961C26.8294 41.2641 26.5337 42.731 26.2354 44.1969C26.1991 44.365 26.2076 44.5397 26.2598 44.7036C26.2997 44.816 26.3742 44.9128 26.4726 44.9802C26.5711 45.0476 26.6883 45.082 26.8076 45.0785C27.3292 45.0919 27.334 45.0966 27.2345 45.6104C27.2038 45.7683 27.169 45.9316 27.1319 46.0911C27.1211 46.164 27.0841 46.2305 27.0279 46.2782C26.9718 46.326 26.9002 46.3517 26.8265 46.3507C26.4066 46.361 25.9828 46.3886 25.5637 46.3144C24.7429 46.1676 24.3365 45.683 24.3222 44.8401C24.3128 44.2876 24.4635 43.7612 24.5716 43.2277C24.8084 42.0573 25.0523 40.8876 25.2922 39.7172C25.294 39.6977 25.2932 39.678 25.2899 39.6588Z" fill="white"/>
<path d="M14.3929 39.3494C14.4694 39.2514 14.5508 39.1573 14.6368 39.0676C15.2264 38.5088 15.9469 38.3218 16.7378 38.3368C16.8956 38.3368 16.9643 38.3873 16.9217 38.5649C16.8364 38.9153 16.7709 39.2704 16.6951 39.6232C16.6281 39.9389 16.5247 39.991 16.2098 39.9523C15.4024 39.8537 14.5192 40.1315 14.2564 41.294C13.906 42.8488 13.5705 44.4076 13.2304 45.9648C13.1515 46.3365 13.082 46.3933 12.6969 46.3925C12.3488 46.3925 12 46.3925 11.6519 46.3925C11.3796 46.3925 11.3125 46.3049 11.3701 46.0366C11.7579 44.234 12.1462 42.4319 12.5351 40.6303C12.5768 40.4714 12.5975 40.3076 12.5966 40.1433C12.584 39.8813 12.4893 39.7724 12.2265 39.7298C12.0686 39.7045 11.9944 39.6161 12.0252 39.4551C12.0702 39.2183 12.1152 38.9816 12.1689 38.7448C12.1799 38.6651 12.2198 38.5923 12.2811 38.5402C12.3424 38.4881 12.4207 38.4603 12.5011 38.4623C12.9084 38.4559 13.3164 38.4623 13.7118 38.583C14.0796 38.6951 14.3053 38.9319 14.3369 39.3312L14.3929 39.3494Z" fill="white"/>
<path d="M7.48858 45.013C7.50515 44.4503 7.66774 43.9128 7.78455 43.3682C8.10577 41.8687 8.43567 40.3691 8.7632 38.8696C8.82318 38.5941 8.92105 38.5192 9.19728 38.5176C9.56559 38.5176 9.93391 38.5176 10.3022 38.5176C10.5792 38.5176 10.6463 38.5965 10.5887 38.8641C10.2009 40.6604 9.81184 42.4561 9.42143 44.2514C9.36799 44.4689 9.34855 44.6933 9.36381 44.9167C9.38749 45.1685 9.47667 45.264 9.71976 45.3003C9.86498 45.3224 9.93206 45.4084 9.9076 45.5465C9.86182 45.8054 9.80973 46.0627 9.74975 46.3176C9.73478 46.3858 9.69663 46.4467 9.64179 46.4898C9.58695 46.533 9.51883 46.5558 9.44905 46.5544C9.05443 46.567 8.65981 46.5355 8.28887 46.3784C7.73877 46.1495 7.47437 45.687 7.48858 45.013Z" fill="white"/>
<path d="M35.0615 51.1793C35.7276 51.5574 35.786 52.3158 35.2193 52.8628C34.8058 53.2653 33.9029 53.3947 33.3899 53.1264C33.2703 53.0688 33.1696 52.9783 33.0997 52.8655C33.0298 52.7526 32.9935 52.6222 32.9953 52.4895C32.9797 52.2617 33.0285 52.0341 33.1361 51.8327C33.2437 51.6314 33.4058 51.4643 33.6038 51.3506C33.7024 51.289 33.8105 51.2425 33.9131 51.1927C33.9131 51.1777 33.9131 51.1596 33.9068 51.1564C33.3457 50.866 33.4704 50.3333 33.764 49.9158C33.9124 49.72 34.125 49.5828 34.3646 49.5282C34.6325 49.4575 34.9128 49.4467 35.1854 49.4967C35.4474 49.5401 35.6873 49.649 35.7686 49.93C35.8183 50.0797 35.8287 50.2396 35.799 50.3944C35.7693 50.5493 35.7004 50.694 35.599 50.8147C35.4593 50.9789 35.2746 51.0775 35.0615 51.1793ZM33.6677 52.2922C33.6618 52.4046 33.6979 52.5153 33.7689 52.6028C33.8399 52.6902 33.9408 52.7483 34.052 52.7657C34.5737 52.8778 35.0781 52.3442 34.9478 51.8186C34.9269 51.7147 34.8706 51.6212 34.7887 51.5541C34.7067 51.4869 34.604 51.4501 34.498 51.45C34.0536 51.4311 33.6661 51.8226 33.6677 52.2922ZM34.7592 49.9497C34.6838 49.9492 34.609 49.9635 34.5391 49.9919C34.4693 50.0203 34.4057 50.0622 34.352 50.1152C34.2984 50.1682 34.2557 50.2313 34.2264 50.3008C34.1972 50.3703 34.1819 50.4449 34.1815 50.5203C34.1783 50.5727 34.1856 50.6252 34.2029 50.6748C34.2203 50.7244 34.2474 50.77 34.2826 50.8089C34.3178 50.8479 34.3604 50.8794 34.408 50.9017C34.4555 50.9239 34.5071 50.9365 34.5595 50.9386C34.8476 50.9433 35.1515 50.6229 35.1578 50.3143C35.1617 50.0981 35.0007 49.9513 34.7592 49.9497Z" fill="white"/>
<path d="M38.7116 50.2062C38.6953 50.0305 38.6217 49.865 38.502 49.7354C38.3823 49.6057 38.2233 49.5191 38.0494 49.4888C37.8023 49.4446 37.548 49.4644 37.3107 49.5464C36.6304 49.7919 36.3834 50.3459 36.3194 51.0002C36.2523 51.7042 36.6612 52.0672 37.3668 51.9851C37.6335 51.9536 37.8174 51.8044 38.0068 51.63C37.9883 51.8597 37.9155 52.0818 37.7945 52.278C37.5901 52.6473 37.2847 52.8352 36.8522 52.7626C36.7089 52.7461 36.5675 52.716 36.4299 52.6726C36.1932 52.5834 36.1876 52.7925 36.1205 52.9007C36.0369 53.0356 36.1829 53.0648 36.2602 53.1027C36.9129 53.4271 37.6296 53.2874 38.0755 52.6955C38.6343 51.9638 38.83 51.1154 38.7116 50.2062ZM38.1465 50.5558C38.1177 50.7779 38.0461 50.9923 37.9358 51.1872C37.8111 51.3916 37.6398 51.5148 37.3881 51.5029C37.0724 51.495 36.9342 51.3538 36.9414 50.9923C36.9559 50.7779 37.0117 50.5684 37.1055 50.3751C37.1645 50.2422 37.2625 50.1305 37.3865 50.0547C37.5704 49.9481 37.7732 49.8905 37.9634 50.0121C38.1536 50.1336 38.182 50.3427 38.1465 50.5558Z" fill="white"/>
<path d="M40.4924 52.3269H39.0955C38.9021 52.3269 38.865 52.2661 38.9534 52.0901C38.9885 52.0275 39.0315 51.9697 39.0813 51.9181C39.7197 51.1857 40.3685 50.4619 40.9944 49.7193C41.1783 49.5006 41.389 49.5235 41.6171 49.5354C41.7457 49.5417 41.696 49.6482 41.681 49.7177C41.5695 50.2638 41.4569 50.8095 41.3432 51.3546C41.3238 51.4778 41.2975 51.5998 41.2643 51.72C41.2193 51.8589 41.2809 51.8668 41.3945 51.8731C41.4837 51.8778 41.6423 51.7942 41.6384 51.9915C41.6329 52.2598 41.5745 52.3451 41.374 52.3237C41.1735 52.3024 41.1033 52.3821 41.0907 52.5605C41.0816 52.6254 41.0687 52.6897 41.052 52.7531C40.9533 53.2361 40.9533 53.2322 40.4601 53.2053C40.3377 53.1982 40.3156 53.1493 40.3377 53.0475C40.389 52.8162 40.4372 52.585 40.4924 52.3269ZM40.8618 50.5243L39.7371 51.866C40.0228 51.866 40.2556 51.866 40.4885 51.866C40.503 51.868 40.5177 51.8669 40.5318 51.8629C40.5459 51.8589 40.559 51.852 40.5703 51.8426C40.5816 51.8333 40.5908 51.8217 40.5974 51.8086C40.6039 51.7955 40.6077 51.7812 40.6084 51.7665C40.6874 51.3719 40.7686 50.9757 40.861 50.5235L40.8618 50.5243Z" fill="white"/>
<path d="M17.9794 53.2482C17.6781 53.2478 17.3797 53.1888 17.1009 53.0746C17.0315 53.0446 16.8949 53.0264 16.9573 52.9167C17.0196 52.807 17.0307 52.5939 17.2533 52.6468C17.558 52.7277 17.8724 52.7665 18.1877 52.762C18.3535 52.7581 18.5158 52.7146 18.6613 52.635C19.0283 52.4298 19.0417 52.0383 18.6786 51.8244C18.5 51.7296 18.3155 51.6463 18.1262 51.575C17.3472 51.2396 17.2027 50.4796 17.8207 49.8908C18.3179 49.4172 18.917 49.377 19.5507 49.5396C19.6076 49.5546 19.6628 49.5751 19.7188 49.594C20.0195 49.6974 20.0251 49.7195 19.8609 49.9792C19.8524 49.9982 19.8402 50.0154 19.825 50.0297C19.8098 50.0439 19.7919 50.0551 19.7724 50.0624C19.7529 50.0697 19.7321 50.0731 19.7113 50.0724C19.6904 50.0717 19.6699 50.0668 19.651 50.0581C19.3429 49.9621 19.0191 49.9267 18.6976 49.9539C18.5885 49.9607 18.4826 49.9933 18.3886 50.049C18.2946 50.1047 18.2152 50.1819 18.1569 50.2744C17.9991 50.5309 18.0575 50.7637 18.3266 50.8955C18.5089 50.9847 18.7015 51.0533 18.8878 51.1323C19.6912 51.4732 19.8049 52.3698 19.1151 52.908C18.8278 53.129 18.4482 53.2458 17.9794 53.2482Z" fill="white"/>
<path d="M22.6364 50.9439C22.8203 50.7458 22.9742 50.5588 23.2307 50.5019C23.926 50.3488 24.4059 50.8129 24.2638 51.509C24.1975 51.8365 24.1273 52.1633 24.0641 52.4916C24.0421 52.6084 24.0286 52.7134 24.1857 52.7781C24.3088 52.8286 24.2023 52.9509 24.1983 53.0409C24.1999 53.0605 24.1973 53.0803 24.1908 53.0989C24.1843 53.1174 24.174 53.1345 24.1606 53.1489C24.1471 53.1633 24.1309 53.1747 24.1128 53.1825C24.0947 53.1903 24.0752 53.1942 24.0555 53.194C23.6245 53.243 23.3546 52.9659 23.4304 52.5366C23.4872 52.2138 23.5567 51.8934 23.6198 51.5713C23.6313 51.5194 23.6385 51.4666 23.6411 51.4135C23.6466 51.2264 23.6411 51.037 23.443 50.94C23.2725 50.8555 23.005 50.9273 22.8519 51.0978C22.6988 51.2683 22.6285 51.4924 22.5812 51.7213C22.4896 52.1578 22.3949 52.5934 22.3089 53.0314C22.308 53.0557 22.3021 53.0795 22.2914 53.1013C22.2807 53.1231 22.2656 53.1424 22.247 53.1579C22.2284 53.1735 22.2067 53.1849 22.1834 53.1916C22.1601 53.1982 22.1356 53.1998 22.1116 53.1964C21.6499 53.2074 21.6507 53.2114 21.7438 52.7591C21.8464 52.2577 21.9482 51.7566 22.0492 51.2556C22.0737 51.1333 22.1084 51.0039 21.9277 50.9581C21.8488 50.9376 21.8661 50.8626 21.8866 50.8105C21.9229 50.7198 21.878 50.588 22.0169 50.5485C22.0837 50.5274 22.1543 50.5212 22.2238 50.5303C22.2933 50.5394 22.3599 50.5637 22.419 50.6014C22.4781 50.6391 22.5282 50.6894 22.5658 50.7485C22.6033 50.8077 22.6274 50.8744 22.6364 50.9439Z" fill="white"/>
<path d="M28.552 52.0848C28.3815 52.0848 28.2094 52.0934 28.0398 52.0848C27.9135 52.0769 27.8819 52.1305 27.8819 52.2426C27.8653 52.6577 28.0895 52.8779 28.5007 52.8274C28.6698 52.8062 28.8363 52.7681 28.9979 52.7138C29.1234 52.6719 29.17 52.7138 29.2197 52.8203C29.2694 52.9269 29.2473 53.009 29.1408 53.0626C28.8164 53.2273 28.451 53.2937 28.0895 53.2536C27.4778 53.1936 27.2008 52.8393 27.2584 52.2237C27.2832 51.8891 27.3713 51.5624 27.5181 51.2608C27.8204 50.6586 28.3862 50.3808 29.035 50.511C29.4122 50.5899 29.6348 50.837 29.6538 51.2213C29.6601 51.3394 29.6521 51.4579 29.6301 51.5741C29.5512 51.9545 29.3933 52.0832 29.0058 52.0911C28.855 52.0911 28.7035 52.0911 28.5528 52.0911L28.552 52.0848ZM27.9861 51.653H28.8282C28.8605 51.6569 28.8932 51.6515 28.9225 51.6375C28.9518 51.6236 28.9766 51.6016 28.994 51.5741C29.0792 51.4281 29.0389 51.1219 28.915 51.0019C28.7911 50.882 28.6064 50.8725 28.4233 50.9767C28.1668 51.1211 28.0729 51.3792 27.9861 51.653Z" fill="white"/>
<path d="M10.3726 35.5158C10.5826 35.5158 10.7925 35.511 11.004 35.5158C11.195 35.5213 11.27 35.6089 11.2337 35.792C11.1516 36.2035 11.0648 36.6133 10.9732 37.0216C10.9251 37.2324 10.8154 37.3184 10.5944 37.32C10.1998 37.32 9.80517 37.32 9.41055 37.32C9.16431 37.316 9.09485 37.2221 9.14773 36.9822C9.22666 36.5978 9.31189 36.2135 9.39792 35.8307C9.44922 35.6018 9.55103 35.5205 9.7807 35.515C9.97722 35.515 10.1753 35.515 10.3711 35.515L10.3726 35.5158Z" fill="white"/>
<path d="M31.9377 50.2879C31.7246 50.3763 31.5336 50.456 31.341 50.5326C31.2937 50.5515 31.225 50.5847 31.1958 50.5658C31.139 50.5294 31.184 50.4576 31.1871 50.4008C31.199 50.1956 31.3039 50.0764 31.5028 50.0014C31.8643 49.8625 32.2131 49.6976 32.5706 49.5453C32.6227 49.5224 32.6804 49.4663 32.7285 49.4995C32.7766 49.5326 32.7356 49.6092 32.7285 49.6629C32.502 50.7757 32.2715 51.8877 32.0474 53.0006C32.0174 53.1497 31.9511 53.2034 31.7956 53.201C31.3465 53.1947 31.3497 53.201 31.442 52.763C31.6062 51.9864 31.7656 51.2082 31.9266 50.4308C31.9322 50.3937 31.9314 50.3534 31.9377 50.2879Z" fill="white"/>
<path d="M24.7793 52.3048C24.7874 51.9422 24.8741 51.5857 25.0334 51.2599C25.3626 50.5733 26.2402 50.2647 26.9103 50.6025C26.9955 50.6459 27.1541 50.668 27.0981 50.825C27.0342 51.0002 26.8787 51.0752 26.7256 51.0026C26.1218 50.7185 25.6948 51.076 25.533 51.5795C25.4461 51.8278 25.4064 52.0901 25.4162 52.353C25.4367 52.6797 25.6396 52.8534 25.9687 52.8265C26.1249 52.8059 26.278 52.7667 26.4249 52.7097C26.5038 52.6837 26.5748 52.6584 26.6151 52.7681C26.6482 52.8589 26.7122 52.9378 26.604 53.0302C26.2718 53.3135 25.4147 53.3356 25.0729 53.0625C24.8235 52.8684 24.773 52.5969 24.7793 52.3048Z" fill="white"/>
<path d="M20.0991 52.6007C20.1717 52.2384 20.257 51.8114 20.3462 51.3781C20.3919 51.1532 20.4456 50.9299 20.4851 50.7041C20.4857 50.6799 20.4915 50.656 20.502 50.6341C20.5125 50.6122 20.5276 50.5928 20.5461 50.5772C20.5647 50.5615 20.5864 50.55 20.6097 50.5433C20.6331 50.5366 20.6575 50.5349 20.6816 50.5384C21.148 50.5242 21.1457 50.5202 21.0525 50.9701C20.9491 51.4713 20.8465 51.9717 20.7479 52.4736C20.7242 52.5951 20.7013 52.7104 20.871 52.7759C20.991 52.8217 20.8892 52.9337 20.8852 53.0213C20.8813 53.1089 20.8576 53.1729 20.7573 53.1926C20.403 53.2621 20.0991 53.0229 20.0991 52.6007Z" fill="white"/>
<path d="M21.0565 49.4114C21.1355 49.4114 21.1962 49.4114 21.2546 49.4114C21.313 49.4114 21.3659 49.4367 21.3541 49.503C21.3272 49.6506 21.2941 49.7966 21.2578 49.9418C21.2436 49.997 21.1931 50.016 21.1378 50.0262C20.6722 50.1099 20.6185 50.0444 20.7132 49.5874C20.7614 49.3396 20.9397 49.4327 21.0565 49.4114Z" fill="white"/>
<path d="M34.2162 16.3723C32.4231 16.2934 30.6568 16.0669 28.9654 15.4252C27.4998 14.8728 26.2181 14.0512 25.271 12.7742C24.4203 11.632 23.9489 10.2519 23.923 8.82798C23.8764 7.28502 24.215 5.80204 24.6625 4.34037C24.7533 4.04441 24.9529 3.91971 25.312 3.90313C25.7296 3.88261 26.1344 3.98206 26.5433 4.04046C27.9473 4.23935 29.353 4.43034 30.7515 4.66317C31.184 4.73499 31.5502 4.69237 31.8951 4.43429C32.3173 4.1186 32.794 4.06177 33.3086 4.08545C34.1954 4.11542 35.0765 4.23842 35.9376 4.45244C36.0282 4.46843 36.1137 4.50576 36.187 4.56136C37.4324 5.64577 38.6486 6.76018 39.677 8.06085C40.1426 8.64962 40.1411 8.65435 40.0464 9.40255C40.0366 9.46265 40.0407 9.52418 40.0583 9.58246C40.076 9.64073 40.1067 9.69419 40.1482 9.73877C40.5744 10.2565 40.9713 10.7971 41.3888 11.3212C41.9713 12.0528 42.2468 12.8918 42.3486 13.8026C42.3943 14.2072 42.4346 14.6126 42.4693 15.0188C42.4875 15.2334 42.4764 15.2382 42.2767 15.134C41.7382 14.8458 41.2184 14.5239 40.7204 14.1703C40.1789 13.7962 39.6486 13.4087 39.1356 12.9975C38.9791 12.8698 38.7904 12.7879 38.5902 12.7608C38.0051 12.6648 37.4047 12.7452 36.8654 12.9915C36.3262 13.2379 35.8724 13.6392 35.5619 14.1443C35.4617 14.3069 35.4609 14.4134 35.6242 14.5129C35.6522 14.5318 35.6786 14.5529 35.7032 14.576C36.0765 14.8996 36.0773 14.9004 35.8744 15.3653C35.846 15.4308 35.8121 15.4955 35.7789 15.5594C35.4869 16.1119 35.1176 16.542 34.3962 16.3778C34.3366 16.3695 34.2762 16.3676 34.2162 16.3723ZM36.1294 9.48937L35.0631 8.29288C34.9739 8.19265 34.925 8.29288 34.8729 8.3355C34.3331 8.80589 33.7943 9.27785 33.2565 9.7514C33.2108 9.79165 33.1429 9.81848 33.1334 9.9053L36.1294 9.48937Z" fill="#162D4C"/>
<path d="M34.0559 26.0593L33.3922 25.5857C31.5959 24.3135 29.8006 23.0404 28.0064 21.7666C27.9492 21.7202 27.8802 21.6907 27.8071 21.6815C27.734 21.6723 27.6598 21.6837 27.5928 21.7145C26.2432 22.1881 24.8889 22.6482 23.5433 23.1351C23.2631 23.2362 23.0137 23.1525 22.754 23.1249C22.3484 23.0823 22.3484 23.0775 22.4336 22.6742C23.1123 19.442 23.7913 16.2109 24.4706 12.9808C24.4785 12.9445 24.488 12.9082 24.4967 12.8711C24.5756 12.8892 24.5937 12.954 24.6245 12.999C26.1588 15.2775 28.3095 16.616 30.9779 17.1653C32.0027 17.3713 33.0454 17.4747 34.0907 17.4739C34.2485 17.4739 34.2895 17.5237 34.2982 17.672C34.3258 18.118 34.3669 18.5631 34.4079 19.0082C34.4256 19.1713 34.4122 19.3363 34.3685 19.4944C34.2524 19.8985 34.1467 20.3049 34.0299 20.7082C34.0125 20.7599 34.0075 20.815 34.0152 20.8689C34.0229 20.9229 34.043 20.9744 34.0741 21.0192C34.7741 22.147 35.4671 23.278 36.1648 24.4066C36.2291 24.5052 36.2648 24.6197 36.2682 24.7373C36.2879 25.3876 36.3132 26.038 36.34 26.6883C36.3448 26.7862 36.3273 26.8839 36.2887 26.974C35.9872 27.7088 35.6936 28.4467 35.3866 29.1791C35.2899 29.3946 35.2402 29.6281 35.2406 29.8642C35.2406 30.0734 35.2201 30.2825 35.2082 30.4861C35.1498 30.5137 35.1246 30.4735 35.0969 30.4498C33.992 29.5343 32.895 28.6156 31.7892 27.7041C31.6598 27.5975 31.6661 27.5533 31.805 27.4673C32.4932 27.0442 33.1767 26.6133 33.861 26.184C33.9186 26.15 33.9731 26.1137 34.0559 26.0593Z" fill="#162D4C"/>
<path d="M27.7469 22.4629C27.8115 22.4695 27.8715 22.4992 27.9158 22.5466C28.9445 23.2663 29.9728 23.9853 31.001 24.7035C31.1209 24.7864 31.1509 24.8614 31.1193 25.0098C30.8037 26.5093 30.5069 28.0199 30.1991 29.5242C30.1697 29.6515 30.1888 29.7852 30.2528 29.8991C30.3775 30.1359 30.4895 30.3798 30.604 30.6181C30.5456 30.682 30.4832 30.6568 30.4288 30.6568C29.1731 30.6568 27.9174 30.6568 26.6609 30.6623C26.6069 30.668 26.5526 30.655 26.507 30.6254C26.4615 30.5958 26.4275 30.5514 26.4107 30.4997C26.32 30.2961 26.2221 30.0948 26.1116 29.9007C26.0776 29.8457 26.0584 29.7829 26.0559 29.7183C26.0535 29.6537 26.0677 29.5895 26.0974 29.5321C26.6199 28.2922 27.1345 27.0492 27.6554 25.8093C27.719 25.6596 27.751 25.4984 27.7493 25.3357C27.7438 24.3815 27.7469 23.4289 27.7469 22.4629Z" fill="#162D4C"/>
<path d="M45.1219 17.9216C42.8 17.9216 40.6809 17.227 38.7109 16.0274C38.014 15.6045 37.3566 15.1198 36.7465 14.5791C36.6305 14.4765 36.6329 14.4047 36.7213 14.2919C37.1995 13.6794 37.842 13.5089 38.5815 13.5871C38.8406 13.618 39.0862 13.7192 39.2918 13.8799C40.8766 15.0448 42.59 15.9516 44.5126 16.4291C45.5923 16.6957 46.7094 16.7773 47.8164 16.6706C48.0776 16.6469 48.342 16.6517 48.6056 16.654C48.7145 16.654 48.8424 16.6635 48.8929 16.7835C48.9474 16.9184 48.8629 17.0203 48.7698 17.1126C48.5733 17.2882 48.3404 17.4184 48.0879 17.4938C47.2671 17.7779 46.4155 17.8845 45.5528 17.9192C45.4108 17.9263 45.2663 17.9216 45.1219 17.9216Z" fill="#162D4C"/>
<path d="M39.2453 17.0703C40.0194 17.5177 40.85 17.8593 41.7148 18.0861C41.9303 18.1442 42.149 18.1896 42.3699 18.2218C42.5001 18.2392 42.5167 18.2944 42.504 18.4018C42.4793 18.7293 42.4061 19.0514 42.287 19.3575C41.8206 20.4427 41.287 21.4987 40.838 22.5934C40.6509 23.0488 40.4575 23.5018 40.3644 23.988C40.2555 24.5405 40.6383 24.9422 41.1955 24.842C41.3454 24.8151 41.3904 24.8514 41.418 24.9903C41.4591 25.2098 41.4811 25.4324 41.4836 25.6557C41.4882 25.7077 41.4761 25.76 41.4492 25.8048C41.4222 25.8496 41.3818 25.8847 41.3336 25.9051C40.714 26.2247 40.1245 26.1103 39.5878 25.7346C39.0188 25.336 38.7986 24.7315 38.7654 24.0606C38.7212 23.2303 38.8309 22.4079 38.9383 21.5863C39.0772 20.5319 39.3029 19.4901 39.4071 18.4294C39.441 18.0837 39.3281 17.7538 39.2974 17.4144C39.2847 17.3102 39.2658 17.2053 39.2453 17.0703Z" fill="#162D4C"/>
<path d="M36.1292 9.49008L33.1301 9.90601C33.1396 9.8192 33.2091 9.79236 33.2533 9.75211C33.7905 9.27857 34.3292 8.8066 34.8696 8.33622C34.9217 8.29123 34.9706 8.19336 35.0598 8.2936L36.1292 9.49008Z" fill="#DCAA10"/>
</svg>
