<svg width="126" height="35" viewBox="0 0 126 35" fill="none" xmlns="http://www.w3.org/2000/svg">
<path d="M123.681 8.85547C123.961 8.85745 124.235 8.92954 124.48 9.06516C124.736 9.20254 124.948 9.41135 125.088 9.66627C125.229 9.91495 125.304 10.196 125.305 10.4821C125.304 10.7656 125.23 11.044 125.09 11.2904C124.951 11.5445 124.743 11.7535 124.489 11.8928C124.242 12.0327 123.964 12.1062 123.68 12.1062C123.397 12.1062 123.118 12.0327 122.871 11.8928C122.617 11.7533 122.408 11.5443 122.269 11.2904C122.127 11.0433 122.052 10.7633 122.052 10.4783C122.052 10.1934 122.127 9.91338 122.269 9.66627C122.409 9.411 122.621 9.20211 122.878 9.06516C123.123 8.92862 123.4 8.85648 123.681 8.85547ZM123.681 9.12489C123.448 9.12679 123.22 9.1871 123.017 9.30026C122.803 9.41502 122.626 9.58936 122.509 9.80224C122.39 10.008 122.328 10.2414 122.328 10.479C122.328 10.7165 122.39 10.9499 122.509 11.1557C122.627 11.3682 122.803 11.5424 123.017 11.6577C123.222 11.7759 123.455 11.8381 123.692 11.8381C123.928 11.8381 124.161 11.7759 124.366 11.6577C124.58 11.5431 124.757 11.3687 124.874 11.1557C124.991 10.9504 125.053 10.7184 125.053 10.4821C125.052 10.2436 124.99 10.0094 124.872 9.80224C124.754 9.58936 124.578 9.41502 124.363 9.30026C124.154 9.18449 123.919 9.12412 123.681 9.12489ZM122.968 11.3844V9.63068H123.568C123.718 9.62372 123.869 9.64045 124.014 9.68024C124.104 9.7102 124.181 9.76976 124.234 9.84927C124.286 9.92356 124.315 10.0123 124.316 10.1034C124.317 10.1655 124.305 10.2271 124.281 10.2845C124.258 10.3419 124.223 10.394 124.179 10.4377C124.083 10.5353 123.953 10.5925 123.815 10.5978C123.871 10.6185 123.921 10.6501 123.964 10.6906C124.062 10.7963 124.147 10.9127 124.218 11.0375L124.432 11.3794H124.086L123.931 11.1036C123.858 10.9513 123.758 10.8136 123.636 10.6969C123.57 10.652 123.49 10.6305 123.41 10.6359H123.245V11.3844H122.968ZM123.25 10.3995H123.592C123.708 10.4112 123.826 10.3858 123.927 10.3271C123.956 10.3038 123.979 10.2741 123.995 10.2403C124.01 10.2066 124.017 10.1697 124.016 10.1327C124.017 10.083 124.002 10.0344 123.973 9.99414C123.943 9.95228 123.902 9.92038 123.854 9.90264C123.761 9.87706 123.666 9.86676 123.57 9.87214H123.25V10.3995Z" fill="#58595B"/>
<path d="M19.9254 9.76006C22.6206 9.76006 24.8055 7.5752 24.8055 4.88003C24.8055 2.18486 22.6206 0 19.9254 0C17.2303 0 15.0454 2.18486 15.0454 4.88003C15.0454 7.5752 17.2303 9.76006 19.9254 9.76006Z" fill="#F16522"/>
<path d="M26.8374 31.2298C29.5326 31.2298 31.7175 29.0449 31.7175 26.3498C31.7175 23.6546 29.5326 21.4697 26.8374 21.4697C24.1423 21.4697 21.9574 23.6546 21.9574 26.3498C21.9574 29.0449 24.1423 31.2298 26.8374 31.2298Z" fill="#F16522"/>
<path d="M4.88003 26.6761C7.5752 26.6761 9.76007 24.4912 9.76007 21.796C9.76007 19.1009 7.5752 16.916 4.88003 16.916C2.18486 16.916 0 19.1009 0 21.796C0 24.4912 2.18486 26.6761 4.88003 26.6761Z" fill="#F16522"/>
<path d="M5.53066 15.1272C7.28252 15.1272 8.70269 13.7071 8.70269 11.9552C8.70269 10.2034 7.28252 8.7832 5.53066 8.7832C3.7788 8.7832 2.35864 10.2034 2.35864 11.9552C2.35864 13.7071 3.7788 15.1272 5.53066 15.1272Z" fill="#F6921E"/>
<path d="M28.2202 13.8265C29.9721 13.8265 31.3923 12.4063 31.3923 10.6544C31.3923 8.90259 29.9721 7.48242 28.2202 7.48242C26.4684 7.48242 25.0482 8.90259 25.0482 10.6544C25.0482 12.4063 26.4684 13.8265 28.2202 13.8265Z" fill="#F6921E"/>
<path d="M17.8107 33.6692C19.5626 33.6692 20.9827 32.2491 20.9827 30.4972C20.9827 28.7454 19.5626 27.3252 17.8107 27.3252C16.0588 27.3252 14.6387 28.7454 14.6387 30.4972C14.6387 32.2491 16.0588 33.6692 17.8107 33.6692Z" fill="#F6921E"/>
<path d="M10.3281 30.9047C11.5409 30.9047 12.5241 29.9215 12.5241 28.7087C12.5241 27.4959 11.5409 26.5127 10.3281 26.5127C9.11527 26.5127 8.13208 27.4959 8.13208 28.7087C8.13208 29.9215 9.11527 30.9047 10.3281 30.9047Z" fill="#FFC10E"/>
<path d="M30.3348 20.0073C31.5476 20.0073 32.5308 19.0241 32.5308 17.8112C32.5308 16.5984 31.5476 15.6152 30.3348 15.6152C29.122 15.6152 28.1388 16.5984 28.1388 17.8112C28.1388 19.0241 29.122 20.0073 30.3348 20.0073Z" fill="#FFC10E"/>
<path d="M10.816 8.62152C12.0288 8.62152 13.012 7.63833 13.012 6.42551C13.012 5.21268 12.0288 4.22949 10.816 4.22949C9.60318 4.22949 8.62 5.21268 8.62 6.42551C8.62 7.63833 9.60318 8.62152 10.816 8.62152Z" fill="#FFC10E"/>
<path d="M47.7163 34.1318V9.46224H50.3533V12.5796C50.9786 11.3833 51.8046 10.4649 52.8314 9.82443C53.8602 9.18348 55.0507 8.85012 56.2627 8.86368C58.5985 8.86368 60.4747 9.67956 61.8913 11.3113C63.3078 12.9431 64.0157 15.1065 64.0149 17.8015C64.0149 20.5448 63.3218 22.7235 61.9358 24.3374C60.5497 25.9514 58.6951 26.7592 56.372 26.7609C55.0376 26.7609 53.8752 26.4496 52.8848 25.8269C51.8944 25.2042 51.0862 24.2764 50.4601 23.0437V34.1318H47.7163ZM50.3851 17.7964C50.3851 19.6603 50.8866 21.1531 51.8898 22.2749C52.8929 23.3966 54.2217 23.96 55.8764 23.9651C57.4912 23.9651 58.762 23.4512 59.6889 22.4236C60.6158 21.3959 61.0788 19.9696 61.0779 18.1446C61.0779 16.102 60.6149 14.5007 59.6889 13.3409C58.7629 12.181 57.4738 11.6006 55.8217 11.5998C54.1341 11.5998 52.8065 12.1505 51.8389 13.2519C50.8714 14.3533 50.388 15.8698 50.3889 17.8015L50.3851 17.7964Z" fill="#58595B"/>
<path d="M81.8904 9.46264V26.0509H79.2V23.0416C78.551 24.2497 77.722 25.1715 76.713 25.8069C75.6994 26.4432 74.5241 26.7745 73.3275 26.7613C71.0027 26.7613 69.1294 25.9425 67.7078 24.3048C66.2861 22.6671 65.5753 20.4995 65.5753 17.8019C65.5753 15.0704 66.2658 12.8977 67.6468 11.2838C69.0278 9.66979 70.8743 8.86492 73.1864 8.86916C74.542 8.86916 75.7188 9.18051 76.7168 9.80323C77.7148 10.4259 78.5197 11.3532 79.1314 12.5851V9.46264H81.8904ZM79.2 17.9112C79.2 16.038 78.7014 14.5299 77.7042 13.387C76.707 12.2441 75.4061 11.6731 73.8015 11.6739C72.1384 11.6739 70.8404 12.1996 69.9076 13.251C68.9748 14.3024 68.5088 15.7711 68.5097 17.657C68.5097 19.6633 68.9786 21.2103 69.9165 22.2981C70.8544 23.386 72.185 23.9299 73.9082 23.9299C75.5603 23.9299 76.8553 23.4012 77.7932 22.3439C78.7311 21.2866 79.2 19.809 79.2 17.9112Z" fill="#58595B"/>
<path d="M100.878 9.46253V25.7611C100.878 27.5614 100.76 28.8429 100.525 29.6054C100.289 30.3646 99.8904 31.0633 99.3568 31.6527C98.5977 32.49 97.6472 33.131 96.5864 33.5208C95.4952 33.9284 94.2417 34.1321 92.826 34.1321C90.369 34.1321 88.4543 33.5581 87.0818 32.4101C85.7093 31.2621 84.9925 29.6363 84.9315 27.5326H88.0463V27.7499C88.0463 28.9954 88.4653 29.9565 89.3032 30.6335C90.1411 31.3104 91.3272 31.6493 92.8616 31.6502C93.9706 31.6502 94.9178 31.4659 95.7032 31.0973C96.4598 30.7535 97.0883 30.1793 97.4989 29.4567C97.7572 29.0163 97.9365 28.5342 98.0288 28.0321C98.1356 27.4882 98.1885 26.7087 98.1877 25.6937V22.8979C97.5624 24.084 96.7427 24.9935 95.7286 25.6264C94.7041 26.2633 93.5188 26.5936 92.3126 26.5782C89.9869 26.5782 88.1137 25.7683 86.6929 24.1484C85.2721 22.5285 84.5613 20.3769 84.5604 17.6938C84.5604 14.9826 85.2505 12.8345 86.6306 11.2493C88.0108 9.66417 89.8573 8.86947 92.1702 8.86523C93.5156 8.86523 94.6958 9.17659 95.7108 9.7993C96.7258 10.422 97.5281 11.3374 98.1178 12.5456V9.46253H100.878ZM98.1877 17.8018C98.1877 15.9379 97.6925 14.4391 96.702 13.3056C95.7116 12.172 94.4078 11.6039 92.7904 11.6014C91.1264 11.6014 89.8285 12.1271 88.8965 13.1785C87.9646 14.2299 87.4986 15.6985 87.4986 17.5845C87.4986 19.5916 87.9676 21.1386 88.9054 22.2256C89.8433 23.3126 91.1743 23.8565 92.8984 23.8574C94.5505 23.8574 95.8455 23.3228 96.7834 22.2536C97.7213 21.1844 98.1894 19.7004 98.1877 17.8018Z" fill="#58595B"/>
<path d="M119.937 9.46264V26.0509H117.247V23.0416C116.598 24.2506 115.769 25.1724 114.757 25.8069C113.743 26.4432 112.568 26.7745 111.371 26.7613C109.046 26.7613 107.173 25.9425 105.752 24.3048C104.331 22.6671 103.62 20.4995 103.619 17.8019C103.619 15.0704 104.309 12.8977 105.689 11.2838C107.07 9.66979 108.916 8.86492 111.229 8.86916C112.585 8.86916 113.762 9.18051 114.761 9.80323C115.76 10.4259 116.564 11.3532 117.175 12.5851V9.46264H119.937ZM117.247 17.9112C117.247 16.038 116.748 14.5299 115.752 13.387C114.756 12.2441 113.455 11.6731 111.849 11.6739C110.185 11.6739 108.887 12.1996 107.955 13.251C107.023 14.3024 106.557 15.7711 106.557 17.657C106.557 19.6633 107.026 21.2103 107.964 22.2981C108.902 23.386 110.234 23.9299 111.961 23.9299C113.613 23.9299 114.908 23.4012 115.846 22.3439C116.784 21.2866 117.251 19.809 117.247 17.9112Z" fill="#58595B"/>
</svg>
